<svg width="209" height="208" viewBox="0 0 209 208" fill="none" xmlns="http://www.w3.org/2000/svg">
<rect width="209" height="208" fill="#EE628F"/>
<path fill-rule="evenodd" clip-rule="evenodd" d="M54 36.7352V83.7802C54.2755 83.7839 54.5514 83.7858 54.8279 83.7858C84.2707 83.7858 108.191 62.7875 108.633 36.7352H54Z" fill="#FFF3F7"/>
<path fill-rule="evenodd" clip-rule="evenodd" d="M54 172L106.977 172C106.982 171.755 106.984 171.51 106.984 171.265C106.984 145.119 83.3375 123.878 54 123.485L54 172Z" fill="#FFF3F7"/>
<path fill-rule="evenodd" clip-rule="evenodd" d="M120.23 36H155C155 55.8291 147.158 86.6466 119.673 103.825C147.158 121.003 155 151.82 155 171.649H120.23C117.746 127.539 75.8005 114.552 54 113.571V108.781V98.868V94.078C75.8005 93.0978 117.746 80.1099 120.23 36Z" fill="#FFF3F7"/>
</svg>
